<svg xmlns="http://www.w3.org/2000/svg" height="800" width="1200" viewBox="-76.8 -19.293475 665.6 115.76085"><path d="M110.2305 0C80.803 0 75.168 8.595 75.168 38.6836c0 29.8912 5.635 38.4863 35.0625 38.4863 29.5458 0 34.9238-8.5951 34.9238-38.4863C145.1543 8.595 139.7763 0 110.2305 0zm366.8164 0c-29.4175 0-35.0528 8.595-35.0528 38.6836 0 29.8912 5.6353 38.4863 35.0528 38.4863C506.6025 77.17 512 68.5748 512 38.6836 512 8.595 506.6025 0 477.0469 0zm-290.25.004c-24.809 0-34.4903 7.401-34.4903 23.4766 0 13.638 3.3943 17.7342 18.8086 22.0664l15.4453 3.8379c4.648 1.115 5.625 2.4466 5.625 5.3183 0 4.0658-3.7404 5.043-17.418 5.043-11.457 0-20.9413-.6504-20.9413-.6504l-.1075 16.8652s13.558 1.213 26.0118 1.213c23.9307 0 35.1816-5.2984 35.1816-23.3575 0-12.0492-1.916-18.3172-17.3105-22.1855l-15.7696-3.5313c-5.1611-1.0756-6.7597-2.291-6.7597-5.4883 0-4.1841 2.911-4.9531 14.2695-4.9531 10.1348 0 20.3789.5332 20.3789.5332l.2168-16.9941S198.3527.004 186.7969.004zm175.7285 1.0957l20.8418 74.959h34.9238l20.7344-74.959h-24.6816L400.834 62.836 387.1973 1.0997zm-105.8145.0195v16.8457h20.17v58.0938h24.3457V17.9649h20.0722V1.1192zm-33.0976.004v74.9395h24.4844V1.1232zm106.3027 0v74.9395h24.4629V1.1232zM0 1.1369v74.9219h24.4531V52.8869h7.5c28.6774 0 36.0586-4.51 36.0586-25.1348 0-22.5688-6.7498-26.6152-37.914-26.6152zm110.2305 16.0742c10.2334 0 10.787 1.3117 10.787 21.4727 0 20.0623-.5536 21.3945-10.787 21.3945-10.273 0-10.6973-1.3322-10.6973-21.3945 0-20.161.4243-21.4727 10.6973-21.4727zm366.8164 0c10.2532 0 10.8144 1.3117 10.8144 21.4727 0 20.0623-.5612 21.3945-10.8144 21.3945-10.2138 0-10.6875-1.3322-10.6875-21.3945 0-20.161.4737-21.4727 10.6875-21.4727zm-452.5938.002h8.0723c10.569 0 11.1016.1181 11.1016 10.539 0 8.9605-.5326 9.9473-11.1016 9.9473-3.1184 0-5.9802.001-8.0723-.1171z" fill="#706f6f"/></svg>